{"accessors":[{"bufferView":0,"componentType":5126,"count":3354,"max":[661.286071777344,1312.29956054688,116.647537231445],"min":[-660.0,-50.0,-116.647537231445],"normalized":false,"type":"VEC3"},{"bufferView":1,"componentType":5126,"count":3354,"max":[1.0,1.0,1.0,1.0],"min":[-1.0,-1.0,-1.0,-1.0],"normalized":false,"type":"VEC4"},{"bufferView":2,"componentType":5126,"count":3354,"max":[1.0,1.0,1.0],"min":[-1.0,-1.0,-1.0],"normalized":false,"type":"VEC3"},{"bufferView":3,"componentType":5126,"count":3354,"max":[0.976108014583588,0.995050013065338],"min":[0.00485600018873811,0.00495100021362305],"normalized":false,"type":"VEC2"},{"bufferView":4,"componentType":5123,"count":6000,"max":[3353.0],"min":[0.0],"normalized":false,"type":"SCALAR"},{"bufferView":5,"componentType":5126,"count":4,"max":[1.0,0.0,1.94749999046326],"min":[-1.0,0.0,-1.94749999046326],"normalized":false,"type":"VEC3"},{"bufferView":6,"componentType":5126,"count":4,"max":[1.0,0.0,-0.0000152590218931437,1.0],"min":[1.0,0.0,-0.0000152590218931437,1.0],"normalized":false,"type":"VEC4"},{"bufferView":7,"componentType":5126,"count":4,"max":[0.0,1.0,-0.0000152590218931437],"min":[0.0,1.0,-0.0000152590218931437],"normalized":false,"type":"VEC3"},{"bufferView":8,"componentType":5126,"count":4,"max":[1.0,1.0],"min":[0.0,0.0],"normalized":false,"type":"VEC2"},{"bufferView":9,"componentType":5123,"count":6,"max":[3.0],"min":[0.0],"normalized":false,"type":"SCALAR"}],"asset":{"generator":"Godot Engine v4.5.1.stable.official@f62fdbde15035c5576dad93e586201f4d41ef0cb","version":"2.0"},"bufferViews":[{"buffer":0,"byteLength":40248,"byteStride":12,"target":34962},{"buffer":0,"byteLength":53664,"byteOffset":40248,"byteStride":16,"target":34962},{"buffer":0,"byteLength":40248,"byteOffset":93912,"byteStride":12,"target":34962},{"buffer":0,"byteLength":26832,"byteOffset":134160,"byteStride":8,"target":34962},{"buffer":0,"byteLength":12000,"byteOffset":160992,"target":34963},{"buffer":0,"byteLength":48,"byteOffset":172992,"byteStride":12,"target":34962},{"buffer":0,"byteLength":64,"byteOffset":173040,"byteStride":16,"target":34962},{"buffer":0,"byteLength":48,"byteOffset":173104,"byteStride":12,"target":34962},{"buffer":0,"byteLength":32,"byteOffset":173152,"byteStride":8,"target":34962},{"buffer":0,"byteLength":12,"byteOffset":173184,"target":34963}],"buffers":[{"byteLength":173196,"uri":"gate0.bin"}],"extensions":{"OMI_physics_shape":{"shapes":[{"box":{"size":[3.7705078125,37.7565002441406,15.343017578125]},"type":"box"},{"box":{"size":[3.7705078125,37.7565002441406,11.9996337890625]},"type":"box"}]}},"extensionsUsed":["GODOT_single_root","OMI_physics_body","OMI_physics_shape"],"images":[{"uri":"textures%2Flambert3SG_albedo.png"}],"materials":[{"emissiveFactor":[0.0,0.0,0.0],"extensions":{},"name":"lambert3SG","pbrMetallicRoughness":{"baseColorFactor":[1.0,1.0,1.0,1.0],"baseColorTexture":{"index":0},"metallicFactor":0.0,"roughnessFactor":1.0}},{}],"meshes":[{"primitives":[{"attributes":{"NORMAL":2,"POSITION":0,"TANGENT":1,"TEXCOORD_0":3},"indices":4,"material":0,"mode":4}]},{"primitives":[{"attributes":{"NORMAL":7,"POSITION":5,"TANGENT":6,"TEXCOORD_0":8},"indices":9,"material":1,"mode":4}]}],"nodes":[{"children":[1,2,4,6],"name":"Gate","rotation":[0.0,0.70710676908493,0.0,0.70710676908493]},{"mesh":0,"name":"Archway1","rotation":[0.0,0.70710676908493,0.0,0.70710676908493],"translation":[0.0,-19.6949996948242,0.0]},{"children":[3],"name":"Portal","rotation":[-0.5,-0.5,0.5,-0.5],"scale":[300.0,326.596984863281,371.506011962891],"translation":[0.0,351.740264892578,0.0]},{"mesh":1,"name":"MeshInstance3D"},{"children":[5],"extensions":{"OMI_physics_body":{"motion":{"mass":97.7789993286133,"type":"dynamic"}}},"name":"StaticBody3D3"},{"extensions":{"OMI_physics_body":{"collider":{"shape":0}}},"name":"CollisionShape3D2","scale":[33.7849998474121,33.7849998474121,33.7849998474121],"translation":[-46.8010368347168,621.841186523438,-420.185089111328]},{"children":[7],"extensions":{"OMI_physics_body":{"motion":{"mass":97.7789993286133,"type":"dynamic"}}},"name":"StaticBody3D2"},{"extensions":{"OMI_physics_body":{"collider":{"shape":1}}},"name":"CollisionShape3D22","scale":[33.7849998474121,33.7849998474121,33.7849998474121],"translation":[-46.8010368347168,621.841186523438,456.973205566406]}],"samplers":[{"magFilter":9728,"minFilter":9986,"wrapS":10497,"wrapT":10497}],"scene":0,"scenes":[{"nodes":[0]}],"textures":[{"sampler":0,"source":0}]}